<svg width="1920" height="387" viewBox="0 0 1920 387" fill="none" xmlns="http://www.w3.org/2000/svg">
<g opacity="0.1">
<path d="M0 479.26V283.815C0 258.013 6.23116 234.362 18.6935 212.861C31.1558 191.36 48.9898 174.374 72.1955 161.903C95.831 149.003 124.193 142.552 157.283 142.552C173.183 142.552 187.794 144.487 201.116 148.358C214.868 151.798 227.545 156.958 239.148 163.838C250.751 170.719 260.849 178.889 269.444 188.35H270.089C279.113 178.889 289.427 170.719 301.03 163.838C312.632 156.958 325.31 151.798 339.061 148.358C352.813 144.487 367.639 142.552 383.539 142.552C416.628 142.552 444.776 149.003 467.982 161.903C491.617 174.374 509.666 191.36 522.128 212.861C534.591 234.362 540.822 258.013 540.822 283.815V479.26H452.511V283.815C452.511 271.774 449.288 260.808 442.842 250.918C436.826 241.027 428.661 233.072 418.347 227.052C408.034 221.031 396.431 218.021 383.539 218.021C371.076 218.021 359.474 221.031 348.73 227.052C338.417 233.072 330.037 241.027 323.591 250.918C317.574 260.808 314.566 271.774 314.566 283.815V479.26H226.256V283.815C226.256 271.774 223.033 260.808 216.587 250.918C210.57 241.027 202.405 233.072 192.092 227.052C181.778 221.031 170.175 218.021 157.283 218.021C144.821 218.021 133.218 221.031 122.475 227.052C112.161 233.072 103.781 241.027 97.335 250.918C91.3187 260.808 88.3106 271.774 88.3106 283.815V479.26H0Z" fill="url(#paint0_linear_1_3262)"/>
<path d="M752.735 487C719.216 487 690.423 480.335 666.358 467.004C642.293 453.673 623.814 435.827 610.922 413.466C598.46 391.105 592.229 366.379 592.229 339.287V150.293H680.539V339.287C680.539 352.618 683.762 364.874 690.208 376.054C696.655 386.805 705.249 395.405 715.993 401.856C727.166 408.306 739.413 411.531 752.735 411.531C766.057 411.531 778.089 408.306 788.833 401.856C800.006 395.405 808.815 386.805 815.261 376.054C821.708 364.874 824.931 352.618 824.931 339.287V150.293H913.241V339.287C913.241 366.379 906.795 391.105 893.903 413.466C881.441 435.827 863.177 453.673 839.112 467.004C815.476 480.335 786.684 487 752.735 487Z" fill="url(#paint1_linear_1_3262)"/>
<path d="M964.764 479.26V8.38544H1053.07V479.26H964.764Z" fill="url(#paint2_linear_1_3262)"/>
<path d="M1233.95 487C1203.87 487 1177.66 479.26 1155.31 463.779C1132.96 448.298 1115.56 427.657 1103.1 401.856C1091.06 375.624 1085.05 346.813 1085.05 315.421C1085.05 283.17 1091.92 253.928 1105.68 227.697C1119.86 201.465 1140.05 180.824 1166.27 165.774C1192.48 150.293 1223.85 142.552 1260.38 142.552C1297.34 142.552 1328.49 150.293 1353.85 165.774C1379.2 181.254 1398.54 202.11 1411.86 228.342C1425.18 254.573 1431.84 283.6 1431.84 315.421V479.26H1343.53V424.432H1342.24C1335.8 436.042 1327.63 446.578 1317.75 456.038C1308.3 465.499 1296.69 473.024 1282.94 478.615C1269.19 484.205 1252.86 487 1233.95 487ZM1259.09 411.531C1276.28 411.531 1291.11 407.231 1303.57 398.63C1316.03 390.03 1325.48 378.419 1331.93 363.799C1338.81 348.748 1342.24 332.192 1342.24 314.131C1342.24 296.07 1338.81 279.944 1331.93 265.754C1325.48 251.133 1316.03 239.522 1303.57 230.922C1291.11 222.321 1276.28 218.021 1259.09 218.021C1241.47 218.021 1226.22 222.321 1213.32 230.922C1200.86 239.522 1191.19 251.133 1184.32 265.754C1177.87 279.944 1174.65 296.07 1174.65 314.131C1174.65 332.192 1177.87 348.748 1184.32 363.799C1191.19 378.419 1200.86 390.03 1213.32 398.63C1226.22 407.231 1241.47 411.531 1259.09 411.531Z" fill="url(#paint3_linear_1_3262)"/>
<path d="M1483.22 479.26V150.293H1572.17V479.26H1483.22ZM1527.69 110.946C1512.65 110.946 1499.55 105.57 1488.37 94.8199C1477.63 83.6393 1472.26 70.5236 1472.26 55.4729C1472.26 40.4221 1477.63 27.5214 1488.37 16.7709C1499.55 5.59029 1512.65 0 1527.69 0C1542.73 0 1555.63 5.59029 1566.37 16.7709C1577.54 27.5214 1583.13 40.4221 1583.13 55.4729C1583.13 70.5236 1577.54 83.6393 1566.37 94.8199C1555.63 105.57 1542.73 110.946 1527.69 110.946Z" fill="url(#paint4_linear_1_3262)"/>
<path d="M1724.69 402.501V292.845H1613.17V214.151H1724.69V104.495H1807.84V214.151H1920V292.845H1807.84V402.501H1724.69Z" fill="url(#paint5_linear_1_3262)"/>
</g>
<defs>
<linearGradient id="paint0_linear_1_3262" x1="960" y1="0" x2="960" y2="388.5" gradientUnits="userSpaceOnUse">
<stop stop-color="white"/>
<stop offset="1" stop-color="#1A1F6D"/>
</linearGradient>
<linearGradient id="paint1_linear_1_3262" x1="960" y1="0" x2="960" y2="388.5" gradientUnits="userSpaceOnUse">
<stop stop-color="white"/>
<stop offset="1" stop-color="#1A1F6D"/>
</linearGradient>
<linearGradient id="paint2_linear_1_3262" x1="960" y1="0" x2="960" y2="388.5" gradientUnits="userSpaceOnUse">
<stop stop-color="white"/>
<stop offset="1" stop-color="#1A1F6D"/>
</linearGradient>
<linearGradient id="paint3_linear_1_3262" x1="960" y1="0" x2="960" y2="388.5" gradientUnits="userSpaceOnUse">
<stop stop-color="white"/>
<stop offset="1" stop-color="#1A1F6D"/>
</linearGradient>
<linearGradient id="paint4_linear_1_3262" x1="960" y1="0" x2="960" y2="388.5" gradientUnits="userSpaceOnUse">
<stop stop-color="white"/>
<stop offset="1" stop-color="#1A1F6D"/>
</linearGradient>
<linearGradient id="paint5_linear_1_3262" x1="960" y1="0" x2="960" y2="388.5" gradientUnits="userSpaceOnUse">
<stop stop-color="white"/>
<stop offset="1" stop-color="#1A1F6D"/>
</linearGradient>
</defs>
</svg>
