<svg width="192" height="48" viewBox="0 0 192 48" fill="none" xmlns="http://www.w3.org/2000/svg">
<path d="M0 47.2371V27.9735C0 25.4305 0.617432 23.0993 1.8523 20.9801C3.08716 18.8609 4.85429 17.1868 7.15369 15.9576C9.49568 14.6861 12.3061 14.0503 15.5848 14.0503C17.1603 14.0503 18.6081 14.2411 19.9281 14.6225C21.2908 14.9616 22.5469 15.4702 23.6966 16.1483C24.8463 16.8265 25.847 17.6318 26.6986 18.5642H26.7625C27.6567 17.6318 28.6786 16.8265 29.8283 16.1483C30.978 15.4702 32.2342 14.9616 33.5968 14.6225C34.9594 14.2411 36.4285 14.0503 38.004 14.0503C41.2828 14.0503 44.0719 14.6861 46.3713 15.9576C48.7132 17.1868 50.5017 18.8609 51.7365 20.9801C52.9714 23.0993 53.5888 25.4305 53.5888 27.9735V47.2371H44.8383V27.9735C44.8383 26.7868 44.519 25.706 43.8802 24.7311C43.2841 23.7563 42.475 22.9722 41.4531 22.3788C40.4311 21.7854 39.2814 21.4887 38.004 21.4887C36.7691 21.4887 35.6194 21.7854 34.5549 22.3788C33.5329 22.9722 32.7026 23.7563 32.0639 24.7311C31.4677 25.706 31.1697 26.7868 31.1697 27.9735V47.2371H22.4192V27.9735C22.4192 26.7868 22.0998 25.706 21.4611 24.7311C20.8649 23.7563 20.0559 22.9722 19.0339 22.3788C18.012 21.7854 16.8623 21.4887 15.5848 21.4887C14.35 21.4887 13.2003 21.7854 12.1357 22.3788C11.1138 22.9722 10.2834 23.7563 9.64471 24.7311C9.04857 25.706 8.7505 26.7868 8.7505 27.9735V47.2371H0Z" fill="white"/>
<path d="M74.5868 48C71.2655 48 68.4125 47.343 66.0279 46.0291C63.6434 44.7152 61.8124 42.9563 60.5349 40.7523C59.3001 38.5484 58.6826 36.1113 58.6826 33.4411V14.8132H67.4331V33.4411C67.4331 34.755 67.7525 35.9629 68.3912 37.0649C69.0299 38.1245 69.8816 38.9722 70.9461 39.608C72.0532 40.2437 73.2668 40.5616 74.5868 40.5616C75.9069 40.5616 77.0991 40.2437 78.1637 39.608C79.2708 38.9722 80.1437 38.1245 80.7824 37.0649C81.4212 35.9629 81.7405 34.755 81.7405 33.4411V14.8132H90.491V33.4411C90.491 36.1113 89.8523 38.5484 88.5749 40.7523C87.34 42.9563 85.5303 44.7152 83.1457 46.0291C80.8037 47.343 77.9508 48 74.5868 48Z" fill="white"/>
<path d="M95.5963 47.2371V0.826491H104.347V47.2371H95.5963Z" fill="white"/>
<path d="M122.269 48C119.289 48 116.691 47.2371 114.477 45.7113C112.263 44.1854 110.538 42.151 109.303 39.608C108.111 37.0225 107.515 34.1828 107.515 31.0887C107.515 27.9099 108.196 25.0278 109.559 22.4424C110.964 19.857 112.965 17.8225 115.563 16.3391C118.16 14.8132 121.269 14.0503 124.888 14.0503C128.55 14.0503 131.637 14.8132 134.15 16.3391C136.662 17.8649 138.578 19.9205 139.898 22.506C141.218 25.0914 141.878 27.9523 141.878 31.0887V47.2371H133.128V41.8331H133C132.361 42.9775 131.552 44.0159 130.573 44.9483C129.636 45.8808 128.486 46.6225 127.124 47.1735C125.761 47.7245 124.143 48 122.269 48ZM124.76 40.5616C126.464 40.5616 127.933 40.1378 129.168 39.2901C130.403 38.4424 131.339 37.298 131.978 35.857C132.659 34.3735 133 32.7417 133 30.9616C133 29.1815 132.659 27.5921 131.978 26.1934C131.339 24.7523 130.403 23.6079 129.168 22.7603C127.933 21.9126 126.464 21.4887 124.76 21.4887C123.015 21.4887 121.503 21.9126 120.226 22.7603C118.991 23.6079 118.033 24.7523 117.351 26.1934C116.713 27.5921 116.393 29.1815 116.393 30.9616C116.393 32.7417 116.713 34.3735 117.351 35.857C118.033 37.298 118.991 38.4424 120.226 39.2901C121.503 40.1378 123.015 40.5616 124.76 40.5616Z" fill="white"/>
<path d="M146.969 47.2371V14.8132H155.783V47.2371H146.969ZM151.376 10.9351C149.885 10.9351 148.587 10.4053 147.48 9.3457C146.415 8.24371 145.883 6.95099 145.883 5.46755C145.883 3.98411 146.415 2.71258 147.48 1.65298C148.587 0.550994 149.885 0 151.376 0C152.866 0 154.144 0.550994 155.208 1.65298C156.315 2.71258 156.869 3.98411 156.869 5.46755C156.869 6.95099 156.315 8.24371 155.208 9.3457C154.144 10.4053 152.866 10.9351 151.376 10.9351Z" fill="white"/>
<path d="M172.647 39.6715V28.8636H161.597V21.1073H172.647V10.2993H180.886V21.1073H192V28.8636H180.886V39.6715H172.647Z" fill="#F93447"/>
<path d="M172.647 28.8636V21.1073V10.2993H180.886V21.1073H192V28.8636H180.886H172.647Z" fill="#FE9114"/>
</svg>
