<?xml version="1.0" encoding="UTF-8"?>
<svg version="1.1" xmlns="http://www.w3.org/2000/svg" width="1080" height="1080">
<path d="M0 0 C356.4 0 712.8 0 1080 0 C1080 356.4 1080 712.8 1080 1080 C723.6 1080 367.2 1080 0 1080 C0 723.6 0 367.2 0 0 Z " fill="#FEFEFE" transform="translate(0,0)"/>
<path d="M0 0 C4.91999707 4.22522527 9.59959623 8.66940056 14.0625 13.375 C17.69191 11.86068834 19.82534414 9.72556071 22.5 6.875 C38.5693374 -9.47708234 60.66709277 -23.12564314 83.0625 -28.625 C84.3825 -28.625 85.7025 -28.625 87.0625 -28.625 C87.31790636 -18.72422577 87.51308332 -8.82424057 87.63243389 1.0791626 C87.68973323 5.67847415 87.76737192 10.27552496 87.89233398 14.87353516 C88.01228584 19.31523644 88.0777093 23.75477112 88.10614967 28.19796753 C88.12640162 29.88868323 88.16595588 31.57928635 88.22553062 33.26907349 C88.67379384 46.51638818 88.67379384 46.51638818 84.70742798 51.09155273 C81.91420091 53.11852473 79.08486629 54.71939959 76.0625 56.375 C62.72132403 67.73934828 53.23350789 85.24548793 51.77425575 102.85298729 C51.65571819 106.85406442 51.62530325 110.85000276 51.63012695 114.85229492 C51.62109225 116.38099958 51.61076089 117.90969704 51.59924316 119.43838501 C51.57184731 123.5553905 51.56241255 127.67225788 51.55638909 131.78934264 C51.54695971 136.10418955 51.52075289 140.41893514 51.49638367 144.73371887 C51.45283989 152.88962955 51.42421868 161.04552042 51.40106028 169.20151168 C51.36886511 180.23311341 51.31341217 191.26459721 51.25931454 202.2961092 C51.17479322 219.65570424 51.1211683 237.01525374 51.0625 254.375 C27.3025 254.375 3.5425 254.375 -20.9375 254.375 C-20.97617187 237.83503906 -20.97617187 237.83503906 -21.015625 220.9609375 C-21.04080163 213.96091991 -21.06697902 206.96092957 -21.09765625 199.9609375 C-21.14612621 188.8587261 -21.19059734 177.75660529 -21.20849609 166.65429688 C-21.22155319 158.56688371 -21.24862068 150.47965578 -21.29211307 142.39234698 C-21.31463713 138.11503989 -21.33041616 133.83796049 -21.32938385 129.56058884 C-21.32863183 125.52375913 -21.34679686 121.48743101 -21.37866783 117.45073128 C-21.38709532 115.97953268 -21.38896619 114.50827734 -21.38330269 113.03706551 C-21.34086956 100.30539146 -23.66848002 88.67326212 -29.5 77.25 C-30.00490967 76.25516602 -30.00490967 76.25516602 -30.52001953 75.24023438 C-39.50984048 58.43335364 -55.39567427 47.22617743 -73.3125 41.5625 C-92.06153196 36.0967928 -111.34227121 39.18379599 -128.265625 48.265625 C-132.89315726 50.859491 -137.00804149 53.80850352 -140.9375 57.375 C-141.62070312 57.97828125 -142.30390625 58.5815625 -143.0078125 59.203125 C-154.70160613 70.14104604 -162.89782847 86.8302072 -164.22574425 102.85298729 C-164.34428181 106.85406442 -164.37469675 110.85000276 -164.36987305 114.85229492 C-164.37890775 116.38099958 -164.38923911 117.90969704 -164.40075684 119.43838501 C-164.42815269 123.5553905 -164.43758745 127.67225788 -164.44361091 131.78934264 C-164.45304029 136.10418955 -164.47924711 140.41893514 -164.50361633 144.73371887 C-164.54716011 152.88962955 -164.57578132 161.04552042 -164.59893972 169.20151168 C-164.63113489 180.23311341 -164.68658783 191.26459721 -164.74068546 202.2961092 C-164.82520678 219.65570424 -164.8788317 237.01525374 -164.9375 254.375 C-188.6975 254.375 -212.4575 254.375 -236.9375 254.375 C-237.0584091 215.5183969 -237.0584091 215.5183969 -237.08398438 199.13867188 C-237.10173165 187.86348338 -237.12250663 176.58836251 -237.16381836 165.31323242 C-237.19390127 157.09878381 -237.21311741 148.88439049 -237.21976548 140.66988832 C-237.22364605 136.32813146 -237.2326408 131.98653264 -237.25469017 127.64482689 C-237.46045886 85.48328331 -237.46045886 85.48328331 -230.75 66.75 C-230.44811768 65.8822998 -230.14623535 65.01459961 -229.83520508 64.12060547 C-216.41040847 26.52016257 -189.79808214 -3.3589676 -153.8125 -20.75 C-103.15392004 -44.35092494 -42.65263815 -35.90163707 0 0 Z " fill="#1A1F6D" transform="translate(488.9375,428.625)"/>
<path d="M0 0 C40.61883399 0 75.26006591 16.02896532 104.1875 43.875 C124.42079038 64.63297863 137.83270303 91.77603447 142.875 120.25 C142.99528564 120.9092749 143.11557129 121.5685498 143.23950195 122.24780273 C144.3892013 129.60819396 144 136.33074727 144 144 C120.24 144 96.48 144 72 144 C71.01 136.08 71.01 136.08 70 128 C63.98824566 108.46179839 53.29704525 91.29062082 34.8359375 81.28515625 C23.09107408 75.66027436 13.23737331 73.76498311 0 72 C0 48.24 0 24.48 0 0 Z " fill="#F93447" transform="translate(612,395)"/>
<path d="M0 0 C23.76 0 47.52 0 72 0 C72.99 7.92 72.99 7.92 74 16 C77.91153653 30.20877426 84.72659784 41.51367759 95 52 C95.59167969 52.62777344 96.18335938 53.25554687 96.79296875 53.90234375 C109.21064386 65.99107383 127.37876509 70.48897864 144 72 C144 95.76 144 119.52 144 144 C127.39485294 144 127.39485294 144 120.9375 142.9375 C120.15004395 142.80883545 119.36258789 142.6801709 118.55126953 142.54760742 C81.75453113 135.94241573 47.89543629 114.11323307 26.21582031 83.75488281 C13.81193918 65.85144956 6.22479056 46.15618497 1.6875 24.9375 C1.51581299 24.17147461 1.34412598 23.40544922 1.16723633 22.61621094 C-0.39794016 14.79441084 0 8.40391792 0 0 Z " fill="#FE9114" transform="translate(684,323)"/>
<path d="M0 0 C23.76 0 47.52 0 72 0 C72 35.64 72 71.28 72 108 C48.24 108 24.48 108 0 108 C0 72.36 0 36.72 0 0 Z " fill="#1A1F6D" transform="translate(684,575)"/>
</svg>
