<svg width="270" height="52" viewBox="0 0 270 52" fill="none" xmlns="http://www.w3.org/2000/svg">
<g clip-path="url(#clip0_1_2774)">
<mask id="mask0_1_2774" style="mask-type:luminance" maskUnits="userSpaceOnUse" x="0" y="0" width="271" height="52">
<path d="M270.126 0H0V51.75H270.126V0Z" fill="white"/>
</mask>
<g mask="url(#mask0_1_2774)">
<mask id="mask1_1_2774" style="mask-type:luminance" maskUnits="userSpaceOnUse" x="0" y="0" width="271" height="52">
<path d="M270.126 0H0V51.75H270.126V0Z" fill="white"/>
</mask>
<g mask="url(#mask1_1_2774)">
<path d="M57.1666 4.33405C52.7981 2.30934 48.1272 0.83787 43.2438 0C42.6441 1.07412 41.9434 2.51883 41.4603 3.6681C36.2692 2.89474 31.1258 2.89474 26.0301 3.6681C25.5471 2.51883 24.8306 1.07412 24.2255 0C19.3368 0.83787 14.6605 2.31475 10.2921 4.34477C1.48086 17.5347 -0.90771 30.397 0.286579 43.0767C6.13064 47.3999 11.7942 50.0261 17.3622 51.7447C18.737 49.8704 19.9631 47.8779 21.0194 45.7781C19.0077 45.0208 17.0809 44.0864 15.2604 43.0015C15.7433 42.6471 16.2158 42.2765 16.6722 41.8952C27.7764 47.0401 39.8414 47.0401 50.813 41.8952C51.2748 42.2765 51.7471 42.6471 52.2248 43.0015C50.3989 44.0917 48.4669 45.0261 46.4552 45.7835C47.5114 47.8779 48.7323 49.8758 50.1123 51.75C55.6857 50.0315 61.3545 47.4053 67.1986 43.0767C68.5999 28.3777 64.8048 15.6335 57.1666 4.33405ZM22.5322 35.2788C19.1988 35.2788 16.4652 32.1961 16.4652 28.4421C16.4652 24.6882 19.1404 21.6001 22.5322 21.6001C25.924 21.6001 28.6576 24.6828 28.5992 28.4421C28.6045 32.1961 25.924 35.2788 22.5322 35.2788ZM44.953 35.2788C41.6196 35.2788 38.886 32.1961 38.886 28.4421C38.886 24.6882 41.5612 21.6001 44.953 21.6001C48.3447 21.6001 51.0784 24.6828 51.02 28.4421C51.02 32.1961 48.3447 35.2788 44.953 35.2788Z" fill="#B0B0B0"/>
<path d="M90.6855 13.2019H105.176C108.669 13.2019 111.62 13.755 114.041 14.856C116.455 15.9569 118.266 17.4929 119.466 19.4585C120.665 21.4241 121.27 23.6743 121.27 26.2092C121.27 28.6904 120.643 30.9406 119.391 32.9545C118.138 34.9738 116.233 36.5689 113.669 37.745C111.106 38.9211 107.931 39.5118 104.136 39.5118H90.6855V13.2019ZM103.987 32.8256C106.339 32.8256 108.149 32.2295 109.412 31.0426C110.676 29.8503 111.307 28.2285 111.307 26.1716C111.307 24.265 110.744 22.7452 109.619 21.6066C108.494 20.4681 106.79 19.8935 104.513 19.8935H99.9796V32.8256H103.987Z" fill="#B0B0B0"/>
<path d="M142.966 39.4798C140.959 38.9535 139.149 38.1909 137.541 37.1866V30.9462C138.757 31.8966 140.386 32.6808 142.429 33.2984C144.473 33.9106 146.448 34.2167 148.358 34.2167C149.25 34.2167 149.924 34.0986 150.38 33.8622C150.837 33.626 151.066 33.3414 151.066 33.0137C151.066 32.6378 150.944 32.3263 150.694 32.0739C150.444 31.8215 149.961 31.612 149.245 31.4348L144.786 30.4198C142.233 29.8183 140.423 28.9859 139.346 27.9172C138.268 26.8538 137.732 25.4574 137.732 23.7282C137.732 22.2727 138.199 21.0108 139.144 19.9312C140.083 18.8518 141.421 18.0193 143.156 17.4339C144.893 16.8432 146.92 16.5479 149.25 16.5479C151.33 16.5479 153.236 16.7734 154.972 17.2245C156.708 17.6757 158.141 18.2503 159.282 18.9538V24.856C158.114 24.1525 156.776 23.5993 155.248 23.1803C153.725 22.7669 152.159 22.5628 150.545 22.5628C148.215 22.5628 147.053 22.9655 147.053 23.7657C147.053 24.1417 147.233 24.421 147.594 24.6089C147.955 24.7969 148.618 24.9902 149.579 25.1943L153.294 25.871C155.721 26.2953 157.53 27.0418 158.719 28.1051C159.909 29.1685 160.503 30.7421 160.503 32.8258C160.503 35.1082 159.521 36.9181 157.552 38.2607C155.582 39.6033 152.79 40.2746 149.17 40.2746C147.042 40.2693 144.972 40.0061 142.966 39.4798Z" fill="#B0B0B0"/>
<path d="M169.272 38.6901C167.144 37.6375 165.535 36.209 164.463 34.4045C163.391 32.6 162.85 30.57 162.85 28.3143C162.85 26.0588 163.407 24.0395 164.521 22.2618C165.636 20.4842 167.271 19.0879 169.426 18.0728C171.581 17.0578 174.155 16.553 177.154 16.553C180.869 16.553 183.954 17.3425 186.406 18.9213V25.801C185.541 25.1995 184.532 24.7107 183.38 24.3348C182.228 23.9589 180.997 23.7709 179.681 23.7709C177.377 23.7709 175.578 24.1952 174.277 25.0491C172.977 25.903 172.324 27.0147 172.324 28.3949C172.324 29.7482 172.955 30.8546 174.219 31.7246C175.483 32.5893 177.313 33.0243 179.718 33.0243C180.955 33.0243 182.176 32.8416 183.38 32.4819C184.58 32.1167 185.615 31.6709 186.48 31.1445V37.7986C183.758 39.4527 180.599 40.2797 177.005 40.2797C173.98 40.269 171.4 39.7427 169.272 38.6901Z" fill="#B0B0B0"/>
<path d="M195.674 38.6901C193.53 37.6375 191.895 36.1982 190.769 34.3669C189.644 32.5355 189.076 30.4948 189.076 28.2392C189.076 25.9836 189.639 23.9696 190.769 22.2028C191.9 20.4359 193.524 19.0503 195.658 18.046C197.786 17.0417 200.329 16.5422 203.274 16.5422C206.221 16.5422 208.763 17.0417 210.892 18.046C213.02 19.0503 214.645 20.4251 215.759 22.1812C216.874 23.9374 217.431 25.9513 217.431 28.2338C217.431 30.4894 216.874 32.5302 215.759 34.3615C214.645 36.1928 213.015 37.6321 210.87 38.6847C208.726 39.7374 206.194 40.2637 203.27 40.2637C200.345 40.2637 197.813 39.7427 195.674 38.6901ZM206.964 32.02C207.867 31.107 208.323 29.8987 208.323 28.3949C208.323 26.8912 207.871 25.6936 206.964 24.8074C206.062 23.9159 204.83 23.4702 203.27 23.4702C201.682 23.4702 200.44 23.9159 199.532 24.8074C198.63 25.699 198.179 26.8912 198.179 28.3949C198.179 29.8987 198.63 31.107 199.532 32.02C200.435 32.933 201.682 33.3949 203.27 33.3949C204.83 33.3894 206.062 32.933 206.964 32.02Z" fill="#B0B0B0"/>
<path d="M239.754 17.9386V26.0588C238.81 25.4304 237.589 25.1189 236.076 25.1189C234.095 25.1189 232.567 25.7258 231.505 26.9395C230.439 28.1533 229.908 30.0437 229.908 32.6V39.5172H220.805V17.5251H229.723V24.5175C230.216 21.9611 231.018 20.0761 232.121 18.8569C233.22 17.6432 234.642 17.0364 236.373 17.0364C237.684 17.0364 238.81 17.3371 239.754 17.9386Z" fill="#B0B0B0"/>
<path d="M270 12.4502V39.5174H260.896V34.5928C260.126 36.4456 258.959 37.858 257.388 38.8246C255.816 39.786 253.873 40.2694 251.57 40.2694C249.511 40.2694 247.717 39.7645 246.182 38.7495C244.649 37.7345 243.465 36.3436 242.632 34.5766C241.804 32.8097 241.384 30.812 241.384 28.5778C241.358 26.2739 241.798 24.2062 242.706 22.3749C243.609 20.5435 244.887 19.115 246.533 18.0892C248.179 17.0635 250.058 16.5479 252.165 16.5479C256.502 16.5479 259.41 18.4544 260.896 22.2621V12.4502H270ZM259.538 31.8699C260.467 30.9569 260.928 29.7701 260.928 28.3201C260.928 26.9183 260.477 25.7744 259.575 24.899C258.672 24.0237 257.435 23.5832 255.88 23.5832C254.346 23.5832 253.12 24.029 252.202 24.9205C251.283 25.812 250.827 26.9666 250.827 28.3952C250.827 29.8238 251.283 30.9892 252.202 31.8914C253.12 32.7936 254.331 33.2447 255.843 33.2447C257.377 33.2394 258.608 32.7829 259.538 31.8699Z" fill="#B0B0B0"/>
<path d="M128.941 19.8662C131.447 19.8662 133.479 18.0196 133.479 15.7417C133.479 13.4637 131.447 11.6172 128.941 11.6172C126.434 11.6172 124.402 13.4637 124.402 15.7417C124.402 18.0196 126.434 19.8662 128.941 19.8662Z" fill="#B0B0B0"/>
<path d="M124.396 22.7075C127.177 23.9212 130.628 23.9749 133.473 22.7075V39.6353H124.396V22.7075Z" fill="#B0B0B0"/>
</g>
</g>
</g>
<defs>
<clipPath id="clip0_1_2774">
<rect width="270" height="51.75" fill="white"/>
</clipPath>
</defs>
</svg>
