<svg width="128" height="42" viewBox="0 0 128 42" fill="none" xmlns="http://www.w3.org/2000/svg">
<g clip-path="url(#clip0_1_2760)">
<path fill-rule="evenodd" clip-rule="evenodd" d="M43.713 11.595C37.586 11.595 33.193 16.385 33.193 21.975C33.193 27.643 37.453 32.523 43.785 32.523C49.519 32.523 54.215 28.143 54.215 22.083C54.215 15.145 48.751 11.585 43.715 11.585L43.713 11.595ZM66.591 11.595C60.471 11.595 56.081 16.385 56.081 21.975C56.081 27.643 60.341 32.523 66.674 32.523C72.394 32.523 77.094 28.143 77.094 22.083C77.094 15.145 71.634 11.585 66.594 11.585L66.6 11.595H66.591ZM102.121 31.913H106.731V1.06301H102.121V31.913ZM89.44 15.71C92.2 15.71 95.03 18.068 95.03 22.088C95.03 26.188 92.204 28.428 89.378 28.428C86.378 28.428 83.591 26.008 83.591 22.128C83.591 18.108 86.491 15.708 89.441 15.708L89.44 15.71ZM43.775 15.71C46.789 15.71 49.645 18.148 49.645 22.068C49.645 25.928 46.801 28.428 43.761 28.428C40.431 28.428 37.791 25.761 37.791 22.048C37.791 18.428 40.391 15.725 43.781 15.725V15.709L43.775 15.71ZM66.653 15.71C69.666 15.71 72.523 18.148 72.523 22.068C72.523 25.928 69.678 28.428 66.639 28.428C63.299 28.428 60.659 25.761 60.659 22.048C60.659 18.428 63.259 15.725 66.639 15.725L66.649 15.709L66.653 15.71ZM118.567 11.59C113.264 11.59 108.807 15.81 108.807 22.048C108.807 28.643 113.773 32.548 119.079 32.548C123.489 32.548 126.209 30.128 127.829 27.958L124.209 25.551C123.269 27.011 121.689 28.431 119.069 28.431C116.129 28.431 114.776 26.821 113.939 25.261L128 19.42L127.272 17.714C125.916 14.374 122.752 11.581 118.569 11.581L118.559 11.591L118.567 11.59ZM31.483 14.81H16.543V19.248H27.137C26.617 25.468 21.444 28.118 16.564 28.118C10.321 28.118 4.871 23.204 4.871 16.318C4.871 9.61101 10.051 4.44601 16.571 4.44601C21.591 4.44601 24.551 7.65301 24.551 7.65301L27.651 4.44001C27.651 4.44001 23.67 6.14221e-06 16.4 6.14221e-06C7.158 -0.00799386 0 7.8 0 16.23C0 24.49 6.73 32.55 16.638 32.55C25.358 32.55 31.738 26.58 31.738 17.75C31.738 15.89 31.465 14.81 31.465 14.81H31.483ZM118.753 15.61C120.667 15.61 122.043 16.628 122.627 17.848L113.257 21.768C112.852 18.742 115.725 15.623 118.755 15.623L118.753 15.61ZM89.036 11.61C83.411 11.61 78.989 16.548 78.989 22.068C78.989 28.368 84.109 32.548 88.939 32.548C91.919 32.548 93.499 31.368 94.679 30.008V32.068C94.679 35.686 92.479 37.846 89.179 37.846C85.979 37.846 84.379 35.466 83.819 34.121L79.8 35.8C81.227 38.82 84.1 41.968 89.212 41.968C94.804 41.968 99.067 38.444 99.067 31.058V12.248H94.68V14.021C93.33 12.581 91.486 11.621 89.036 11.621V11.611V11.61Z" fill="#B0B0B0"/>
</g>
<defs>
<clipPath id="clip0_1_2760">
<rect width="128" height="42" fill="white"/>
</clipPath>
</defs>
</svg>
