<svg width="218" height="94" viewBox="0 0 218 94" fill="none" xmlns="http://www.w3.org/2000/svg">
<g clip-path="url(#clip0_1_2764)">
<path d="M88.168 32.2542H94.0453L104.039 50.3319L114.033 32.2542H119.783V61.9593H114.987V39.1925L106.224 54.9575H101.726L92.9632 39.1925V61.9593H88.168V32.2542Z" fill="#B0B0B0"/>
<path d="M135.25 62.4897C133.029 62.4897 131.077 61.9982 129.394 61.015C127.71 60.0319 126.398 58.6705 125.458 56.9306C124.517 55.1906 124.047 53.1962 124.047 50.9471C124.047 48.6698 124.507 46.6541 125.426 44.9C126.345 43.1462 127.622 41.7741 129.256 40.7836C130.89 39.7937 132.768 39.2986 134.889 39.2983C136.997 39.2983 138.811 39.7969 140.332 40.7941C141.852 41.7916 143.023 43.1885 143.843 44.9848C144.663 46.7814 145.074 48.8891 145.074 51.3078V52.6231H128.8C129.097 54.4341 129.829 55.8592 130.996 56.8986C132.163 57.9384 133.637 58.4582 135.42 58.4581C136.848 58.4581 138.079 58.2459 139.112 57.8216C140.144 57.3972 141.113 56.7536 142.019 55.8908L144.565 59.0098C142.032 61.3299 138.927 62.4899 135.25 62.4897ZM138.751 44.868C137.746 43.8426 136.431 43.3299 134.804 43.3297C133.22 43.3297 131.894 43.8531 130.826 44.9C129.758 45.9468 129.082 47.3542 128.8 49.1224H140.47C140.328 47.3117 139.755 45.8936 138.751 44.868Z" fill="#B0B0B0"/>
<path d="M150.888 43.7544H146.475V39.8291H150.888V33.3364H155.513V39.8291H162.218V43.7544H155.513V53.7056C155.513 55.3604 155.796 56.5415 156.362 57.2489C156.928 57.9564 157.897 58.31 159.269 58.3097C159.877 58.3097 160.393 58.285 160.818 58.2355C161.242 58.1862 161.709 58.119 162.218 58.0339V61.9167C161.637 62.0848 161.045 62.2125 160.447 62.2988C159.762 62.3996 159.07 62.4492 158.378 62.4473C153.384 62.4473 150.888 59.7173 150.888 54.2573V43.7544Z" fill="#B0B0B0"/>
<path d="M186.323 61.9591H181.782V58.8613C180.976 60.0214 179.95 60.916 178.706 61.5453C177.461 62.1746 176.046 62.4893 174.462 62.4897C172.51 62.4897 170.781 61.991 169.274 60.9936C167.768 59.9964 166.583 58.6244 165.72 56.8775C164.857 55.1305 164.426 53.1325 164.426 50.8835C164.426 48.6203 164.864 46.6186 165.741 44.8786C166.618 43.1389 167.831 41.7739 169.38 40.7836C170.929 39.7937 172.708 39.2986 174.716 39.2983C176.23 39.2983 177.588 39.5919 178.79 40.179C179.976 40.7528 181.004 41.6088 181.782 42.672V39.8289H186.323V61.9591ZM181.697 47.5734C181.202 46.3145 180.42 45.3207 179.353 44.5921C178.284 43.8638 177.05 43.4996 175.65 43.4996C173.67 43.4996 172.092 44.1644 170.919 45.494C169.744 46.8236 169.157 48.6201 169.157 50.8834C169.157 53.161 169.723 54.9645 170.855 56.2941C171.986 57.6237 173.521 58.2885 175.459 58.2885C176.888 58.2885 178.161 57.9206 179.278 57.185C180.396 56.4499 181.202 55.4597 181.697 54.2146V47.5734Z" fill="#B0B0B0"/>
<path d="M65 31.25C61.144 31.25 58.1298 34.1542 55.4011 37.8435C51.6515 33.0692 48.5156 31.25 44.7629 31.25C37.1121 31.25 31.25 41.2069 31.25 51.7457C31.25 58.3405 34.4405 62.5 39.7845 62.5C43.6308 62.5 46.397 60.6867 51.3147 52.0905C51.3147 52.0905 53.3646 48.4705 54.7748 45.9768C55.269 46.7747 55.7894 47.6344 56.3362 48.556L58.6422 52.4353C63.1343 59.9525 65.6372 62.5 70.1724 62.5C75.3785 62.5 78.2758 58.2836 78.2758 51.5517C78.2759 40.5172 72.2816 31.25 65 31.25ZM47.5647 49.7629C43.5776 56.0129 42.1983 57.4138 39.9784 57.4138C37.694 57.4138 36.3362 55.4082 36.3362 51.8319C36.3362 44.181 40.1509 36.3578 44.6983 36.3578C47.1608 36.3578 49.2187 37.7799 52.3708 42.2925C49.3778 46.8835 47.5647 49.7629 47.5647 49.7629ZM62.6124 48.9761L59.8552 44.3777C59.1091 43.1642 58.392 42.0473 57.704 41.0268C60.189 37.1913 62.2388 35.2802 64.6767 35.2802C69.7414 35.2802 73.7931 42.7371 73.7931 51.8966C73.7931 55.3879 72.6496 57.4138 70.2802 57.4138C68.0092 57.4138 66.9243 55.914 62.6124 48.9761Z" fill="#B0B0B0"/>
</g>
<defs>
<clipPath id="clip0_1_2764">
<rect width="217.574" height="93.75" fill="white"/>
</clipPath>
</defs>
</svg>
