<svg width="192" height="42" viewBox="0 0 192 42" fill="none" xmlns="http://www.w3.org/2000/svg">
<g clip-path="url(#clip0_1_2762)">
<path d="M191.97 19.5569V16.1789H187.776V10.9289L187.635 10.9739L183.698 12.1739H183.623V16.1489H177.407V13.9289C177.407 12.9089 177.647 12.1139 178.097 11.5889C178.547 11.0639 179.207 10.8014 180.017 10.8014C180.617 10.8014 181.247 10.9514 181.847 11.2214L181.997 11.2814V7.73992L181.937 7.70992C181.367 7.50742 180.587 7.40242 179.627 7.40242C178.412 7.40242 177.302 7.67242 176.327 8.20342C175.352 8.71342 174.587 9.47842 174.062 10.4384C173.522 11.3984 173.252 12.5084 173.252 13.7234V16.1534H170.342V19.5284H173.267V33.7484H177.452V19.5284H183.672V28.5584C183.672 32.2784 185.421 34.1684 188.892 34.1684C189.462 34.1684 190.062 34.0964 190.662 33.9734C191.285 33.8384 191.712 33.7034 191.952 33.5684L192.012 33.5384V30.1334L191.843 30.2474C191.618 30.3974 191.333 30.5279 191.003 30.6179C190.673 30.7079 190.388 30.7679 190.175 30.7679C189.365 30.7679 188.765 30.5579 188.396 30.1274C188.015 29.6999 187.826 28.9424 187.826 27.8774V19.5674H191.996L191.987 19.5464L191.97 19.5569ZM160.935 30.7769C159.416 30.7769 158.216 30.2714 157.365 29.2769C156.521 28.2794 156.09 26.8559 156.09 25.0469C156.09 23.1809 156.521 21.7169 157.37 20.7029C158.216 19.6949 159.404 19.1819 160.904 19.1819C162.359 19.1819 163.499 19.6709 164.339 20.6369C165.179 21.6089 165.599 23.0579 165.599 24.9449C165.599 26.8559 165.209 28.3244 164.429 29.3054C163.649 30.2804 162.479 30.7754 160.949 30.7754M161.129 15.7559C158.234 15.7559 155.927 16.6049 154.283 18.2819C152.648 19.9619 151.811 22.2809 151.811 25.1819C151.811 27.9419 152.621 30.1544 154.23 31.7669C155.835 33.3869 158.021 34.2269 160.721 34.2269C163.529 34.2269 165.791 33.3569 167.429 31.6694C169.079 29.9714 169.898 27.6704 169.898 24.8399C169.898 22.0409 169.118 19.8059 167.573 18.2099C166.028 16.5989 163.862 15.7859 161.123 15.7859M145.043 15.7859C143.063 15.7859 141.437 16.2899 140.183 17.2859C138.935 18.2879 138.293 19.5959 138.293 21.1859C138.293 22.0169 138.434 22.7459 138.707 23.3759C138.977 23.9969 139.397 24.5459 139.958 25.0079C140.513 25.4579 141.368 25.9379 142.508 26.4299C143.468 26.8199 144.173 27.1499 144.629 27.4199C145.079 27.6704 145.397 27.9299 145.559 28.1804C145.739 28.4204 145.829 28.7654 145.829 29.1704C145.829 30.3614 144.947 30.9344 143.129 30.9344C142.451 30.9344 141.68 30.7934 140.837 30.5144C139.986 30.2384 139.197 29.8394 138.486 29.3264L138.306 29.2064V33.2264L138.366 33.2564C138.966 33.5264 139.706 33.7664 140.586 33.9464C141.464 34.1414 142.266 34.2314 142.956 34.2314C145.101 34.2314 146.826 33.7214 148.086 32.7254C149.346 31.7174 149.991 30.3704 149.991 28.7294C149.991 27.5444 149.646 26.5244 148.964 25.7069C148.289 24.8879 147.119 24.1409 145.479 23.4809C144.185 22.9559 143.349 22.5209 142.989 22.1909C142.659 21.8669 142.505 21.4109 142.505 20.8349C142.505 20.3249 142.715 19.9139 143.142 19.5839C143.571 19.2464 144.171 19.0784 144.921 19.0784C145.619 19.0784 146.331 19.1834 147.051 19.4009C147.756 19.6229 148.379 19.9109 148.896 20.2649L149.072 20.3849V16.5449L149.012 16.5149C148.524 16.3049 147.891 16.1294 147.122 15.9899C146.357 15.8444 145.662 15.7799 145.059 15.7799M127.359 30.7949C125.844 30.7949 124.644 30.2939 123.804 29.2949C122.949 28.3049 122.522 26.8799 122.522 25.0649C122.522 23.2049 122.951 21.7349 123.803 20.7254C124.643 19.7174 125.834 19.2044 127.328 19.2044C128.783 19.2044 129.938 19.6934 130.77 20.6594C131.598 21.6344 132.03 23.0834 132.03 24.9704C132.03 26.8784 131.625 28.3454 130.845 29.3279C130.08 30.3029 128.91 30.7979 127.365 30.7979M127.575 15.7829C124.665 15.7829 122.355 16.6289 120.72 18.3059C119.075 19.9859 118.245 22.3034 118.245 25.2059C118.245 27.9659 119.055 30.1769 120.65 31.7909C122.258 33.4109 124.439 34.2509 127.137 34.2509C129.957 34.2509 132.207 33.3809 133.857 31.6859C135.498 29.9849 136.332 27.6839 136.332 24.8534C136.332 22.0529 135.552 19.8179 134.022 18.2234C132.477 16.6109 130.308 15.7979 127.572 15.7979M111.915 19.2599V16.1999H107.775V33.7949H111.915V24.7949C111.915 23.2649 112.26 22.0049 112.946 21.0524C113.621 20.1044 114.521 19.6424 115.616 19.6424C115.991 19.6424 116.411 19.7024 116.873 19.8224C117.323 19.9424 117.647 20.0624 117.833 20.2124L118.013 20.3324V16.1624L117.947 16.1324C117.557 15.9584 117.017 15.8744 116.327 15.8744C115.292 15.8744 114.362 16.2104 113.564 16.8644C112.859 17.4464 112.353 18.2384 111.966 19.2284H111.891L111.929 19.2584L111.915 19.2599ZM100.335 15.7799C98.4301 15.7799 96.7351 16.1774 95.2951 16.9799C93.8431 17.7899 92.7301 18.9299 91.9651 20.3999C91.2151 21.8549 90.8251 23.5574 90.8251 25.4549C90.8251 27.1199 91.2031 28.6409 91.9351 29.9879C92.6761 31.3379 93.7201 32.3879 95.0401 33.1229C96.3511 33.8474 97.8751 34.2179 99.5611 34.2179C101.529 34.2179 103.206 33.8279 104.556 33.0479L104.616 33.0179V29.2199L104.436 29.3444C103.826 29.7944 103.146 30.1469 102.411 30.4019C101.679 30.6569 101.013 30.7859 100.431 30.7859C98.8021 30.7859 97.5001 30.2759 96.5521 29.2784C95.5921 28.2584 95.1121 26.8484 95.1121 25.0784C95.1121 23.2784 95.6221 21.8384 96.6061 20.7884C97.5961 19.7084 98.8981 19.1684 100.491 19.1684C101.841 19.1684 103.172 19.6334 104.426 20.5334L104.606 20.6534V16.6634L104.556 16.6334C104.084 16.3634 103.442 16.1534 102.636 15.9824C101.847 15.8174 101.07 15.7364 100.329 15.7364M87.9841 16.1564H83.8501V33.7664H87.9901V16.1564H87.9841ZM85.9441 8.67142C85.2631 8.67142 84.6691 8.90242 84.1801 9.36142C83.6911 9.82342 83.4421 10.4024 83.4421 11.0864C83.4421 11.7614 83.6926 12.3314 84.1771 12.7814C84.6571 13.2314 85.2571 13.4534 85.9471 13.4534C86.6371 13.4534 87.2371 13.2284 87.7246 12.7784C88.2166 12.3284 88.4656 11.7584 88.4656 11.0834C88.4656 10.4234 88.2256 9.85342 87.7456 9.37342C87.2656 8.92342 86.6656 8.68342 85.9456 8.68342M75.6106 14.8784V33.7784H79.8406V9.23992H73.9906L66.5761 27.4769L59.3611 9.23692H53.2801V33.7949H57.2551V14.9024H57.3901L65.0101 33.7994H68.0026L75.5026 14.9039H75.6451L75.6226 14.8949L75.6106 14.8784ZM21.5056 22.5134H40.9756V41.9999H21.4756L21.5026 22.5269L21.5056 22.5134ZM0.000140625 22.5254H19.4671V41.9999H-0.00585938L0.000140625 22.5254ZM21.5071 1.01992H40.9771V20.4899H21.4951L21.5071 1.01392V1.01992ZM0.000140625 1.01692H19.4671V20.4899H-0.00585938L0.000140625 1.01392V1.01692Z" fill="#B0B0B0"/>
</g>
<defs>
<clipPath id="clip0_1_2762">
<rect width="192" height="42" fill="white"/>
</clipPath>
</defs>
</svg>
