<svg width="200" height="44" viewBox="0 0 200 44" fill="none" xmlns="http://www.w3.org/2000/svg">
<g clip-path="url(#clip0_1_2794)">
<path fill-rule="evenodd" clip-rule="evenodd" d="M106.95 30.5001C104.776 32.7086 102.176 33.8186 99.1649 33.8186C96.7279 33.8186 94.6569 33.3212 92.5449 32.0916V27.0266C94.2454 28.1811 96.3814 29.2806 98.4899 29.2806C102.886 29.2806 105.5 26.2516 105.5 21.9606C105.5 17.6646 102.794 14.5456 98.3949 14.5456C96.4309 14.5456 94.8389 15.2526 93.5954 16.6696C92.2624 18.2046 91.5734 20.3986 91.5734 23.2996V43.2896H91.2422C88.8192 43.2896 86.8567 41.3236 86.8567 38.8986V22.5486C86.8567 15.6086 91.0927 10.0086 98.3717 10.0086C101.967 10.0086 104.887 11.2396 107.102 13.7121C109.183 16.0226 110.215 18.9521 110.215 22.4721C110.215 25.6071 109.126 28.2871 106.951 30.4971L106.95 30.5001ZM158 30.3308C155.835 32.6578 153.048 33.8188 149.67 33.8188C146.104 33.8188 143.2 32.5878 140.985 30.1153C138.904 27.7763 137.872 24.8453 137.872 21.3553C137.872 15.1753 142.636 10.0103 148.907 10.0103C151.325 10.0103 153.425 10.5213 155.547 11.6863V16.8013C153.847 15.6468 151.711 14.5473 149.602 14.5473C145.206 14.5473 142.587 17.5758 142.587 21.8723C142.587 26.1078 145.357 29.2873 149.692 29.2873C151.655 29.2873 153.271 28.5508 154.563 27.0678C155.848 25.5938 156.515 23.4283 156.515 20.5178V4.6078C156.515 2.1818 158.479 0.216797 160.901 0.216797H161.232V21.2668C161.232 24.9738 160.161 28.0068 157.998 30.3368L158 30.3308ZM171.32 7.7658C170.825 8.3208 170.115 8.5763 169.249 8.5763C167.63 8.5763 166.471 7.3808 166.471 5.7718C166.471 4.1253 167.608 3.0138 169.249 3.0138C170.828 3.0138 172.027 4.1858 172.027 5.7718C172.027 6.5563 171.798 7.2288 171.32 7.7658ZM195.285 20.5158C195.285 18.6538 194.581 17.1803 193.168 16.0633C191.895 15.0583 190.305 14.5473 188.37 14.5473C184.101 14.5473 181.36 17.8888 181.36 22.0073C181.36 25.9728 184.266 29.2823 188.325 29.2823C191.149 29.2823 192.659 27.6308 194.27 25.5733V31.5033C193.45 32.1188 192.506 32.7898 191.543 33.1838C190.526 33.6087 189.312 33.8153 187.91 33.8153C181.12 33.8153 176.645 28.1853 176.645 21.6803C176.645 18.3393 177.682 15.5753 179.768 13.4253C181.982 11.1428 184.888 10.0108 188.443 10.0108C195.183 10.0108 200.008 13.8863 200.008 20.8908V33.3558H199.678C197.254 33.3558 195.29 31.3898 195.29 28.9643L195.285 20.5158ZM130.735 19.1783C130.139 17.3323 129.392 16.4243 127.673 15.4633C123.585 13.1763 119.563 15.1233 117.693 19.1603L130.735 19.1783ZM127.136 33.7483C124.123 34.3893 121.166 33.8951 118.281 32.2808C115.467 30.7078 113.583 28.3683 112.641 25.2758C110.731 19.0258 114.643 12.0558 120.936 10.3708C124.054 9.5348 127.046 9.9132 129.886 11.5023C134.604 14.1433 136.326 18.2273 136.021 23.4923L117.016 23.4543C117.296 25.6008 118.625 27.2803 120.493 28.3248C122.387 29.3843 124.129 29.6378 125.743 29.1358C127.538 28.5718 128.993 27.1058 130.176 25.7413L134.049 28.5663C132.47 31.3963 130.319 33.0713 127.134 33.7513L127.136 33.7483ZM166.911 10.4783H171.627V33.3533H171.296C168.875 33.3533 166.911 31.3873 166.911 28.9618L166.911 10.4783ZM6.91086 33.3533C2.29736 33.3533 0.00585938 30.2113 0.00585938 25.8233V9.1783C0.00585938 6.7528 1.96986 4.7873 4.39236 4.7873H4.72356V10.4823H12.6936V15.0183H4.72356V26.3533C4.72356 28.2803 5.58256 28.8218 7.42156 28.8218H12.6916V33.3573L6.91086 33.3533ZM34.3059 30.4623C31.9759 32.6993 29.1759 33.8198 25.9209 33.8198C22.6974 33.8198 19.9109 32.6978 17.5809 30.4623C15.2429 28.2173 14.0774 25.3623 14.0774 21.9173C14.0774 15.1973 19.2024 10.0123 25.9174 10.0123C29.1419 10.0123 31.9324 11.1428 34.2774 13.3948C36.6304 15.6538 37.8054 18.5048 37.8054 21.9148C37.8054 25.3583 36.6384 28.2148 34.3004 30.4598L34.3059 30.4623ZM56.3609 15.9823C55.6689 17.1443 55.1324 17.9773 54.7549 18.4808C54.3388 19.0283 53.9279 19.4653 53.5209 19.7678C56.7989 20.8278 58.0199 23.1018 58.0199 26.4878V33.3528H57.6887C55.2667 33.3528 53.3022 31.3868 53.3022 28.9613V26.9558C53.3022 24.7623 52.3197 23.2743 49.9987 23.2743H45.7152V33.3543H45.384C42.962 33.3543 40.9995 31.3883 40.9995 28.9628V4.6078C40.9995 2.1818 42.9615 0.216797 45.384 0.216797H45.7152V18.6968H47.1092C48.6412 18.6968 49.6477 18.1723 50.2257 17.1798L54.1877 10.4848L59.5627 10.4794L56.3609 15.9823ZM80.7109 30.4623C78.3799 32.6993 75.5809 33.8198 72.3259 33.8198C69.1029 33.8198 66.3159 32.6978 63.9859 30.4623C61.6479 28.2173 60.4824 25.3623 60.4824 21.9173C60.4824 15.1973 65.6074 10.0123 72.3224 10.0123C75.5479 10.0123 78.3374 11.1428 80.6824 13.3948C83.0354 15.6538 84.2099 18.5048 84.2099 21.9148C84.2099 25.3583 83.0434 28.2148 80.7054 30.4598L80.7109 30.4623ZM77.3064 16.5923C76.0059 15.2308 74.3554 14.5473 72.3254 14.5473C67.9849 14.5473 65.3854 17.7158 65.3854 21.9173C65.3854 26.0588 68.0454 29.2873 72.3254 29.2873C76.6059 29.2873 79.2654 26.0608 79.2654 21.9173C79.2654 19.7183 78.6049 17.9538 77.3064 16.5923ZM30.9064 16.5923C29.6064 15.2308 27.9554 14.5473 25.9259 14.5473C21.5854 14.5473 18.9859 17.7158 18.9859 21.9173C18.9859 26.0588 21.6459 29.2873 25.9259 29.2873C30.2059 29.2873 32.8659 26.0608 32.8659 21.9173C32.8659 19.7183 32.2064 17.9538 30.9074 16.5923H30.9064Z" fill="#B0B0B0"/>
</g>
<defs>
<clipPath id="clip0_1_2794">
<rect width="200" height="43.5" fill="white"/>
</clipPath>
</defs>
</svg>
